<mxfile host="app.diagrams.net" modified="2023-11-08T04:22:38.286Z" agent="Mozilla/5.0 (Macintosh; Intel Mac OS X 10_15_7) AppleWebKit/537.36 (KHTML, like Gecko) Chrome/104.0.0.0 Safari/537.36" etag="9SNn9EQQ9JULLuU9psM9" version="22.0.8" type="google">
  <diagram name="class diagram" id="4dWl3C3BqsDxm5pRTNil">
    <mxGraphModel grid="1" page="1" gridSize="10" guides="1" tooltips="1" connect="1" arrows="1" fold="1" pageScale="1" pageWidth="850" pageHeight="1100" math="0" shadow="0">
      <root>
        <mxCell id="0" />
        <mxCell id="1" parent="0" />
        <mxCell id="UsbSKTNLDGFMmhRvK32d-12" value="" style="swimlane;startSize=0;" vertex="1" parent="1">
          <mxGeometry x="410" y="-1880" width="910" height="940" as="geometry" />
        </mxCell>
        <mxCell id="FPM6FIKWUKKXR-FhMWvN-14" style="edgeStyle=orthogonalEdgeStyle;rounded=0;orthogonalLoop=1;jettySize=auto;html=1;fillColor=#FFFFFF;strokeColor=#FFFFFF;" edge="1" parent="UsbSKTNLDGFMmhRvK32d-12" source="FPM6FIKWUKKXR-FhMWvN-2">
          <mxGeometry relative="1" as="geometry">
            <mxPoint x="427" y="252.63999999999987" as="targetPoint" />
          </mxGeometry>
        </mxCell>
        <mxCell id="mcIqjRNlvS6JHtu8L6gV-40" value="GUI" style="whiteSpace=wrap;html=1;align=center;" vertex="1" parent="UsbSKTNLDGFMmhRvK32d-12">
          <mxGeometry x="652" y="364.64" width="100" height="40" as="geometry" />
        </mxCell>
        <mxCell id="mcIqjRNlvS6JHtu8L6gV-47" style="edgeStyle=orthogonalEdgeStyle;rounded=0;orthogonalLoop=1;jettySize=auto;html=1;endArrow=ERone;endFill=0;" edge="1" parent="UsbSKTNLDGFMmhRvK32d-12" source="mcIqjRNlvS6JHtu8L6gV-48" target="mcIqjRNlvS6JHtu8L6gV-40">
          <mxGeometry relative="1" as="geometry" />
        </mxCell>
        <mxCell id="mcIqjRNlvS6JHtu8L6gV-48" value="Isa" style="shape=rhombus;perimeter=rhombusPerimeter;whiteSpace=wrap;html=1;align=center;" vertex="1" parent="UsbSKTNLDGFMmhRvK32d-12">
          <mxGeometry x="642" y="228.64" width="120" height="60" as="geometry" />
        </mxCell>
        <mxCell id="mcIqjRNlvS6JHtu8L6gV-49" value="Window" style="whiteSpace=wrap;html=1;align=center;" vertex="1" parent="UsbSKTNLDGFMmhRvK32d-12">
          <mxGeometry x="652" y="124.63999999999999" width="100" height="40" as="geometry" />
        </mxCell>
        <mxCell id="LPd5Grgbhf6XS28AwPnA-9" style="edgeStyle=orthogonalEdgeStyle;rounded=0;orthogonalLoop=1;jettySize=auto;html=1;endArrow=ERone;endFill=0;entryX=0.5;entryY=0;entryDx=0;entryDy=0;" edge="1" parent="UsbSKTNLDGFMmhRvK32d-12" source="LPd5Grgbhf6XS28AwPnA-10" target="cOifzqY8TFvrQT7MqrBf-1">
          <mxGeometry relative="1" as="geometry">
            <mxPoint x="427" y="306.6399999999999" as="sourcePoint" />
            <Array as="points" />
          </mxGeometry>
        </mxCell>
        <mxCell id="FPM6FIKWUKKXR-FhMWvN-15" style="edgeStyle=orthogonalEdgeStyle;rounded=0;orthogonalLoop=1;jettySize=auto;html=1;fillColor=#FFFFFF;strokeColor=#FFFFFF;entryX=0;entryY=0;entryDx=0;entryDy=0;" edge="1" parent="UsbSKTNLDGFMmhRvK32d-12">
          <mxGeometry relative="1" as="geometry">
            <mxPoint x="197.36" y="490" as="sourcePoint" />
            <mxPoint x="254.00466094067258" y="255.85786437626894" as="targetPoint" />
            <Array as="points">
              <mxPoint x="217.36" y="270" />
              <mxPoint x="217.36" y="256" />
            </Array>
          </mxGeometry>
        </mxCell>
        <mxCell id="FPM6FIKWUKKXR-FhMWvN-18" style="edgeStyle=orthogonalEdgeStyle;rounded=0;orthogonalLoop=1;jettySize=auto;html=1;fillColor=#FFFFFF;strokeColor=#FFFFFF;exitX=0.5;exitY=1;exitDx=0;exitDy=0;entryX=0.5;entryY=0;entryDx=0;entryDy=0;" edge="1" parent="UsbSKTNLDGFMmhRvK32d-12">
          <mxGeometry relative="1" as="geometry">
            <mxPoint x="427" y="306.6399999999999" as="sourcePoint" />
            <mxPoint x="112" y="254.14" as="targetPoint" />
            <Array as="points">
              <mxPoint x="42" y="184.14" />
              <mxPoint x="90" y="184.14" />
              <mxPoint x="90" y="254.14" />
            </Array>
          </mxGeometry>
        </mxCell>
        <mxCell id="FPM6FIKWUKKXR-FhMWvN-17" style="edgeStyle=orthogonalEdgeStyle;rounded=0;orthogonalLoop=1;jettySize=auto;html=1;fillColor=#FFFFFF;strokeColor=#FFFFFF;entryX=0.23;entryY=0.038;entryDx=0;entryDy=0;entryPerimeter=0;exitX=1;exitY=1;exitDx=0;exitDy=0;" edge="1" parent="UsbSKTNLDGFMmhRvK32d-12" source="FPM6FIKWUKKXR-FhMWvN-2">
          <mxGeometry relative="1" as="geometry">
            <mxPoint x="92" y="144.14" as="sourcePoint" />
            <mxPoint x="165" y="190.15999999999997" as="targetPoint" />
          </mxGeometry>
        </mxCell>
        <mxCell id="FPM6FIKWUKKXR-FhMWvN-16" style="edgeStyle=orthogonalEdgeStyle;rounded=0;orthogonalLoop=1;jettySize=auto;html=1;fillColor=#FFFFFF;strokeColor=#FFFFFF;entryX=1;entryY=0;entryDx=0;entryDy=0;" edge="1" parent="UsbSKTNLDGFMmhRvK32d-12">
          <mxGeometry relative="1" as="geometry">
            <mxPoint x="412.5999999999999" y="300.15999999999985" as="sourcePoint" />
            <mxPoint x="99.99533905932743" y="194.49786437626892" as="targetPoint" />
            <Array as="points">
              <mxPoint x="412.64" y="455.14" />
              <mxPoint x="99.64" y="455.14" />
            </Array>
          </mxGeometry>
        </mxCell>
        <mxCell id="FPM6FIKWUKKXR-FhMWvN-23" value="BudgetHistory" style="whiteSpace=wrap;html=1;align=center;" vertex="1" parent="UsbSKTNLDGFMmhRvK32d-12">
          <mxGeometry x="311" y="790" width="100" height="30" as="geometry" />
        </mxCell>
        <mxCell id="Hk7M73EH7nj9U-nQJ2d8-8" style="edgeStyle=orthogonalEdgeStyle;rounded=0;orthogonalLoop=1;jettySize=auto;html=1;exitX=0.5;exitY=0;exitDx=0;exitDy=0;entryX=0.5;entryY=1;entryDx=0;entryDy=0;endArrow=ERone;endFill=0;" edge="1" parent="UsbSKTNLDGFMmhRvK32d-12" source="FPM6FIKWUKKXR-FhMWvN-29" target="KZaF6q-184EJnIwjyUxu-1">
          <mxGeometry relative="1" as="geometry" />
        </mxCell>
        <mxCell id="Hk7M73EH7nj9U-nQJ2d8-9" style="edgeStyle=orthogonalEdgeStyle;rounded=0;orthogonalLoop=1;jettySize=auto;html=1;entryX=0.5;entryY=0;entryDx=0;entryDy=0;endArrow=ERone;endFill=0;" edge="1" parent="UsbSKTNLDGFMmhRvK32d-12" source="FPM6FIKWUKKXR-FhMWvN-29" target="FPM6FIKWUKKXR-FhMWvN-23">
          <mxGeometry relative="1" as="geometry" />
        </mxCell>
        <mxCell id="FPM6FIKWUKKXR-FhMWvN-29" value="has" style="shape=rhombus;perimeter=rhombusPerimeter;whiteSpace=wrap;html=1;align=center;" vertex="1" parent="UsbSKTNLDGFMmhRvK32d-12">
          <mxGeometry x="301" y="666.64" width="120" height="49" as="geometry" />
        </mxCell>
        <mxCell id="FPM6FIKWUKKXR-FhMWvN-32" style="edgeStyle=orthogonalEdgeStyle;rounded=0;orthogonalLoop=1;jettySize=auto;html=1;fillColor=#FFFFFF;strokeColor=#FFFFFF;exitX=0.5;exitY=1;exitDx=0;exitDy=0;entryX=0.5;entryY=0;entryDx=0;entryDy=0;" edge="1" parent="UsbSKTNLDGFMmhRvK32d-12" source="FPM6FIKWUKKXR-FhMWvN-29">
          <mxGeometry relative="1" as="geometry">
            <mxPoint x="612.64" y="4.140000000000001" as="sourcePoint" />
            <mxPoint x="652.64" y="144.14" as="targetPoint" />
            <Array as="points">
              <mxPoint x="582.64" y="74.14" />
              <mxPoint x="630.64" y="74.14" />
              <mxPoint x="630.64" y="144.14" />
            </Array>
          </mxGeometry>
        </mxCell>
        <mxCell id="FPM6FIKWUKKXR-FhMWvN-33" style="edgeStyle=orthogonalEdgeStyle;rounded=0;orthogonalLoop=1;jettySize=auto;html=1;fillColor=#FFFFFF;strokeColor=#FFFFFF;entryX=0.23;entryY=0.038;entryDx=0;entryDy=0;entryPerimeter=0;exitX=1;exitY=1;exitDx=0;exitDy=0;" edge="1" parent="UsbSKTNLDGFMmhRvK32d-12" source="FPM6FIKWUKKXR-FhMWvN-29">
          <mxGeometry relative="1" as="geometry">
            <mxPoint x="577.36" y="49" as="sourcePoint" />
            <mxPoint x="650.36" y="95.01999999999998" as="targetPoint" />
            <Array as="points">
              <mxPoint x="747.36" y="20" />
              <mxPoint x="650.36" y="20" />
            </Array>
          </mxGeometry>
        </mxCell>
        <mxCell id="FPM6FIKWUKKXR-FhMWvN-22" style="edgeStyle=orthogonalEdgeStyle;rounded=0;orthogonalLoop=1;jettySize=auto;html=1;fillColor=#FFFFFF;strokeColor=#FFFFFF;" edge="1" parent="UsbSKTNLDGFMmhRvK32d-12">
          <mxGeometry relative="1" as="geometry">
            <mxPoint x="720" y="779.4199999999998" as="sourcePoint" />
            <mxPoint x="720" y="709.6366666666665" as="targetPoint" />
            <Array as="points">
              <mxPoint x="720" y="748.78" />
              <mxPoint x="720" y="748.78" />
            </Array>
          </mxGeometry>
        </mxCell>
        <mxCell id="FPM6FIKWUKKXR-FhMWvN-34" style="edgeStyle=orthogonalEdgeStyle;rounded=0;orthogonalLoop=1;jettySize=auto;html=1;fillColor=#FFFFFF;strokeColor=#FFFFFF;entryX=1;entryY=0;entryDx=0;entryDy=0;" edge="1" parent="UsbSKTNLDGFMmhRvK32d-12" source="FPM6FIKWUKKXR-FhMWvN-29">
          <mxGeometry relative="1" as="geometry">
            <mxPoint x="418" y="-76.86" as="sourcePoint" />
            <mxPoint x="435.35533905932743" y="43.49786437626915" as="targetPoint" />
          </mxGeometry>
        </mxCell>
        <mxCell id="FPM6FIKWUKKXR-FhMWvN-35" style="edgeStyle=orthogonalEdgeStyle;rounded=0;orthogonalLoop=1;jettySize=auto;html=1;fillColor=#FFFFFF;strokeColor=#FFFFFF;entryX=1;entryY=0;entryDx=0;entryDy=0;" edge="1" parent="UsbSKTNLDGFMmhRvK32d-12" source="mcIqjRNlvS6JHtu8L6gV-39">
          <mxGeometry relative="1" as="geometry">
            <mxPoint x="495.36" y="29" as="sourcePoint" />
            <mxPoint x="452.71533905932745" y="114.85786437626916" as="targetPoint" />
            <Array as="points" />
          </mxGeometry>
        </mxCell>
        <mxCell id="FPM6FIKWUKKXR-FhMWvN-40" value="" style="edgeStyle=orthogonalEdgeStyle;rounded=0;orthogonalLoop=1;jettySize=auto;html=1;shadow=0;strokeColor=#FFFFFF;fillColor=#FFFFFF;" edge="1" parent="UsbSKTNLDGFMmhRvK32d-12" target="FPM6FIKWUKKXR-FhMWvN-23">
          <mxGeometry relative="1" as="geometry">
            <mxPoint x="305.1999999999998" y="857.14" as="sourcePoint" />
          </mxGeometry>
        </mxCell>
        <mxCell id="ZYlIsSFp8S143ednloTV-31" value="PurchaseHistory" style="whiteSpace=wrap;html=1;align=center;" vertex="1" parent="UsbSKTNLDGFMmhRvK32d-12">
          <mxGeometry x="152" y="218.64" width="100" height="40" as="geometry" />
        </mxCell>
        <mxCell id="ZYlIsSFp8S143ednloTV-38" style="edgeStyle=orthogonalEdgeStyle;rounded=0;orthogonalLoop=1;jettySize=auto;html=1;endArrow=none;endFill=0;" edge="1" parent="UsbSKTNLDGFMmhRvK32d-12" source="ZYlIsSFp8S143ednloTV-39" target="ZYlIsSFp8S143ednloTV-31">
          <mxGeometry relative="1" as="geometry" />
        </mxCell>
        <mxCell id="ZYlIsSFp8S143ednloTV-39" value="Isa" style="shape=rhombus;perimeter=rhombusPerimeter;whiteSpace=wrap;html=1;align=center;" vertex="1" parent="UsbSKTNLDGFMmhRvK32d-12">
          <mxGeometry x="142" y="318.64" width="120" height="60" as="geometry" />
        </mxCell>
        <mxCell id="ZYlIsSFp8S143ednloTV-40" value="ShopperList" style="whiteSpace=wrap;html=1;align=center;" vertex="1" parent="UsbSKTNLDGFMmhRvK32d-12">
          <mxGeometry x="152" y="418.64" width="100" height="40" as="geometry" />
        </mxCell>
        <mxCell id="ZYlIsSFp8S143ednloTV-41" style="edgeStyle=orthogonalEdgeStyle;rounded=0;orthogonalLoop=1;jettySize=auto;html=1;entryX=0.49;entryY=0.946;entryDx=0;entryDy=0;entryPerimeter=0;endArrow=none;endFill=0;" edge="1" parent="UsbSKTNLDGFMmhRvK32d-12" source="ZYlIsSFp8S143ednloTV-40" target="ZYlIsSFp8S143ednloTV-39">
          <mxGeometry relative="1" as="geometry">
            <Array as="points">
              <mxPoint x="202" y="418.64" />
              <mxPoint x="201" y="418.64" />
            </Array>
          </mxGeometry>
        </mxCell>
        <mxCell id="ZYlIsSFp8S143ednloTV-48" value="" style="endArrow=ERmany;html=1;rounded=0;entryX=0;entryY=0.5;entryDx=0;entryDy=0;endFill=0;startArrow=ERone;startFill=0;exitX=0.5;exitY=1;exitDx=0;exitDy=0;" edge="1" parent="UsbSKTNLDGFMmhRvK32d-12" source="ZYlIsSFp8S143ednloTV-49" target="ZYlIsSFp8S143ednloTV-31">
          <mxGeometry width="50" height="50" relative="1" as="geometry">
            <mxPoint x="72" y="78.63999999999999" as="sourcePoint" />
            <mxPoint x="-7.999999999999986" y="358.64" as="targetPoint" />
            <Array as="points">
              <mxPoint x="72" y="238.64" />
            </Array>
          </mxGeometry>
        </mxCell>
        <mxCell id="ZYlIsSFp8S143ednloTV-49" value="Recommendation Algorithm" style="whiteSpace=wrap;html=1;align=center;" vertex="1" parent="UsbSKTNLDGFMmhRvK32d-12">
          <mxGeometry x="20" y="109.99999999999999" width="100" height="40" as="geometry" />
        </mxCell>
        <mxCell id="i_mZ85ERt7kQ8alrdgQ5-1" value="PriceData" style="whiteSpace=wrap;html=1;align=center;" vertex="1" parent="UsbSKTNLDGFMmhRvK32d-12">
          <mxGeometry x="140" y="626.64" width="100" height="40" as="geometry" />
        </mxCell>
        <mxCell id="i_mZ85ERt7kQ8alrdgQ5-9" value="has" style="shape=rhombus;perimeter=rhombusPerimeter;whiteSpace=wrap;html=1;align=center;" vertex="1" parent="UsbSKTNLDGFMmhRvK32d-12">
          <mxGeometry x="131" y="518.64" width="120" height="60" as="geometry" />
        </mxCell>
        <mxCell id="i_mZ85ERt7kQ8alrdgQ5-11" value="" style="endArrow=ERmany;html=1;rounded=0;exitX=0.5;exitY=0;exitDx=0;exitDy=0;endFill=0;" edge="1" parent="UsbSKTNLDGFMmhRvK32d-12" source="i_mZ85ERt7kQ8alrdgQ5-9">
          <mxGeometry width="50" height="50" relative="1" as="geometry">
            <mxPoint x="54" y="518.64" as="sourcePoint" />
            <mxPoint x="192" y="458.64" as="targetPoint" />
          </mxGeometry>
        </mxCell>
        <mxCell id="i_mZ85ERt7kQ8alrdgQ5-12" value="" style="endArrow=none;html=1;rounded=0;entryX=0.5;entryY=1;entryDx=0;entryDy=0;exitX=0.5;exitY=0;exitDx=0;exitDy=0;startArrow=ERmany;startFill=0;" edge="1" parent="UsbSKTNLDGFMmhRvK32d-12" source="i_mZ85ERt7kQ8alrdgQ5-1" target="i_mZ85ERt7kQ8alrdgQ5-9">
          <mxGeometry width="50" height="50" relative="1" as="geometry">
            <mxPoint x="187" y="608.64" as="sourcePoint" />
            <mxPoint x="209" y="578.64" as="targetPoint" />
          </mxGeometry>
        </mxCell>
        <mxCell id="i_mZ85ERt7kQ8alrdgQ5-13" value="PTrackingHistory" style="whiteSpace=wrap;html=1;align=center;" vertex="1" parent="UsbSKTNLDGFMmhRvK32d-12">
          <mxGeometry x="20" y="860.64" width="100" height="40" as="geometry" />
        </mxCell>
        <mxCell id="i_mZ85ERt7kQ8alrdgQ5-20" value="TrackingReasoning" style="whiteSpace=wrap;html=1;align=center;" vertex="1" parent="UsbSKTNLDGFMmhRvK32d-12">
          <mxGeometry x="269" y="860.64" width="119" height="40" as="geometry" />
        </mxCell>
        <mxCell id="i_mZ85ERt7kQ8alrdgQ5-25" value="has" style="shape=rhombus;perimeter=rhombusPerimeter;whiteSpace=wrap;html=1;align=center;" vertex="1" parent="UsbSKTNLDGFMmhRvK32d-12">
          <mxGeometry x="130" y="709.64" width="120" height="60" as="geometry" />
        </mxCell>
        <mxCell id="i_mZ85ERt7kQ8alrdgQ5-26" value="" style="endArrow=ERone;html=1;rounded=0;exitX=0.5;exitY=0;exitDx=0;exitDy=0;entryX=0.5;entryY=1;entryDx=0;entryDy=0;endFill=0;" edge="1" parent="UsbSKTNLDGFMmhRvK32d-12" source="i_mZ85ERt7kQ8alrdgQ5-25" target="i_mZ85ERt7kQ8alrdgQ5-1">
          <mxGeometry width="50" height="50" relative="1" as="geometry">
            <mxPoint x="427" y="739.64" as="sourcePoint" />
            <mxPoint x="477" y="689.64" as="targetPoint" />
          </mxGeometry>
        </mxCell>
        <mxCell id="i_mZ85ERt7kQ8alrdgQ5-27" value="" style="endArrow=ERone;html=1;rounded=0;exitX=0.5;exitY=1;exitDx=0;exitDy=0;entryX=1;entryY=0.5;entryDx=0;entryDy=0;startArrow=none;startFill=0;endFill=0;" edge="1" parent="UsbSKTNLDGFMmhRvK32d-12" source="i_mZ85ERt7kQ8alrdgQ5-25" target="i_mZ85ERt7kQ8alrdgQ5-13">
          <mxGeometry width="50" height="50" relative="1" as="geometry">
            <mxPoint x="427" y="739.64" as="sourcePoint" />
            <mxPoint x="477" y="689.64" as="targetPoint" />
          </mxGeometry>
        </mxCell>
        <mxCell id="i_mZ85ERt7kQ8alrdgQ5-28" value="" style="endArrow=ERone;html=1;rounded=0;exitX=0.5;exitY=1;exitDx=0;exitDy=0;entryX=0;entryY=0.5;entryDx=0;entryDy=0;endFill=0;" edge="1" parent="UsbSKTNLDGFMmhRvK32d-12" source="i_mZ85ERt7kQ8alrdgQ5-25" target="i_mZ85ERt7kQ8alrdgQ5-20">
          <mxGeometry width="50" height="50" relative="1" as="geometry">
            <mxPoint x="427" y="739.64" as="sourcePoint" />
            <mxPoint x="477" y="689.64" as="targetPoint" />
          </mxGeometry>
        </mxCell>
        <mxCell id="cOifzqY8TFvrQT7MqrBf-1" value="Shopper" style="whiteSpace=wrap;html=1;align=center;" vertex="1" parent="UsbSKTNLDGFMmhRvK32d-12">
          <mxGeometry x="484" y="245.64" width="100" height="40" as="geometry" />
        </mxCell>
        <mxCell id="cOifzqY8TFvrQT7MqrBf-3" style="edgeStyle=orthogonalEdgeStyle;rounded=0;orthogonalLoop=1;jettySize=auto;html=1;entryX=1;entryY=0.5;entryDx=0;entryDy=0;endArrow=ERmany;endFill=0;startArrow=none;startFill=0;" edge="1" parent="UsbSKTNLDGFMmhRvK32d-12" source="cOifzqY8TFvrQT7MqrBf-2" target="ZYlIsSFp8S143ednloTV-40">
          <mxGeometry relative="1" as="geometry" />
        </mxCell>
        <mxCell id="cOifzqY8TFvrQT7MqrBf-4" style="edgeStyle=orthogonalEdgeStyle;rounded=0;orthogonalLoop=1;jettySize=auto;html=1;exitX=1;exitY=0.5;exitDx=0;exitDy=0;entryX=0;entryY=0.5;entryDx=0;entryDy=0;endArrow=ERone;endFill=0;startArrow=none;startFill=0;" edge="1" parent="UsbSKTNLDGFMmhRvK32d-12" source="cOifzqY8TFvrQT7MqrBf-2" target="cOifzqY8TFvrQT7MqrBf-1">
          <mxGeometry relative="1" as="geometry" />
        </mxCell>
        <mxCell id="cOifzqY8TFvrQT7MqrBf-2" value="has" style="shape=rhombus;perimeter=rhombusPerimeter;whiteSpace=wrap;html=1;align=center;" vertex="1" parent="UsbSKTNLDGFMmhRvK32d-12">
          <mxGeometry x="312" y="408.64" width="120" height="60" as="geometry" />
        </mxCell>
        <mxCell id="RviWxnhpbQq3NWddBi7--2" style="edgeStyle=orthogonalEdgeStyle;rounded=0;orthogonalLoop=1;jettySize=auto;html=1;entryX=0.502;entryY=0.015;entryDx=0;entryDy=0;entryPerimeter=0;endArrow=none;endFill=0;startArrow=ERmany;startFill=0;" edge="1" parent="UsbSKTNLDGFMmhRvK32d-12" source="mcIqjRNlvS6JHtu8L6gV-49" target="mcIqjRNlvS6JHtu8L6gV-48">
          <mxGeometry relative="1" as="geometry" />
        </mxCell>
        <mxCell id="Hk7M73EH7nj9U-nQJ2d8-11" style="edgeStyle=orthogonalEdgeStyle;rounded=0;orthogonalLoop=1;jettySize=auto;html=1;exitX=0.5;exitY=0;exitDx=0;exitDy=0;entryX=0.25;entryY=1;entryDx=0;entryDy=0;startArrow=ERone;startFill=0;endArrow=ERone;endFill=0;" edge="1" parent="UsbSKTNLDGFMmhRvK32d-12" source="KZaF6q-184EJnIwjyUxu-1" target="cOifzqY8TFvrQT7MqrBf-1">
          <mxGeometry relative="1" as="geometry">
            <Array as="points">
              <mxPoint x="361" y="490" />
              <mxPoint x="509" y="490" />
            </Array>
          </mxGeometry>
        </mxCell>
        <mxCell id="KZaF6q-184EJnIwjyUxu-1" value="ShoppingBudget" style="rounded=0;whiteSpace=wrap;html=1;" vertex="1" parent="UsbSKTNLDGFMmhRvK32d-12">
          <mxGeometry x="301" y="519.64" width="120" height="60" as="geometry" />
        </mxCell>
        <mxCell id="KZaF6q-184EJnIwjyUxu-4" value="" style="endArrow=ERone;html=1;rounded=0;exitX=1;exitY=0.5;exitDx=0;exitDy=0;endFill=0;" edge="1" parent="UsbSKTNLDGFMmhRvK32d-12" source="_jjHdeWkfMDuz1OpGBQZ-3">
          <mxGeometry width="50" height="50" relative="1" as="geometry">
            <mxPoint x="566.64" y="671.64" as="sourcePoint" />
            <mxPoint x="604.0000000000016" y="548.6399999999999" as="targetPoint" />
          </mxGeometry>
        </mxCell>
        <mxCell id="_jjHdeWkfMDuz1OpGBQZ-3" value="Isa" style="shape=rhombus;perimeter=rhombusPerimeter;whiteSpace=wrap;html=1;align=center;" vertex="1" parent="UsbSKTNLDGFMmhRvK32d-12">
          <mxGeometry x="454" y="519.64" width="120" height="60" as="geometry" />
        </mxCell>
        <mxCell id="_jjHdeWkfMDuz1OpGBQZ-4" value="" style="endArrow=ERone;html=1;rounded=0;exitX=0;exitY=0.5;exitDx=0;exitDy=0;entryX=1;entryY=0.5;entryDx=0;entryDy=0;endFill=0;" edge="1" parent="UsbSKTNLDGFMmhRvK32d-12" source="_jjHdeWkfMDuz1OpGBQZ-3" target="KZaF6q-184EJnIwjyUxu-1">
          <mxGeometry width="50" height="50" relative="1" as="geometry">
            <mxPoint x="864" y="422.64" as="sourcePoint" />
            <mxPoint x="914.0000000000001" y="372.64" as="targetPoint" />
          </mxGeometry>
        </mxCell>
        <mxCell id="_jjHdeWkfMDuz1OpGBQZ-5" value="" style="endArrow=ERone;html=1;rounded=0;exitX=1;exitY=0.5;exitDx=0;exitDy=0;entryX=0;entryY=0.5;entryDx=0;entryDy=0;startArrow=none;startFill=0;endFill=0;" edge="1" parent="UsbSKTNLDGFMmhRvK32d-12" source="i_mZ85ERt7kQ8alrdgQ5-9" target="KZaF6q-184EJnIwjyUxu-1">
          <mxGeometry width="50" height="50" relative="1" as="geometry">
            <mxPoint x="949.0000000000001" y="469.64" as="sourcePoint" />
            <mxPoint x="290" y="564.64" as="targetPoint" />
          </mxGeometry>
        </mxCell>
        <mxCell id="LPd5Grgbhf6XS28AwPnA-8" value="" style="edgeStyle=orthogonalEdgeStyle;rounded=0;orthogonalLoop=1;jettySize=auto;html=1;fillColor=#FFFFFF;strokeColor=#FFFFFF;entryX=0.23;entryY=0.038;entryDx=0;entryDy=0;entryPerimeter=0;exitX=1;exitY=1;exitDx=0;exitDy=0;" edge="1" parent="UsbSKTNLDGFMmhRvK32d-12" target="FPM6FIKWUKKXR-FhMWvN-2">
          <mxGeometry relative="1" as="geometry">
            <mxPoint x="457" y="293.1399999999999" as="sourcePoint" />
            <mxPoint x="377" y="-385.34000000000003" as="targetPoint" />
          </mxGeometry>
        </mxCell>
        <mxCell id="LPd5Grgbhf6XS28AwPnA-13" style="edgeStyle=orthogonalEdgeStyle;rounded=0;orthogonalLoop=1;jettySize=auto;html=1;endArrow=none;endFill=0;startArrow=ERone;startFill=0;" edge="1" parent="UsbSKTNLDGFMmhRvK32d-12" source="FPM6FIKWUKKXR-FhMWvN-2" target="LPd5Grgbhf6XS28AwPnA-10">
          <mxGeometry relative="1" as="geometry" />
        </mxCell>
        <mxCell id="LPd5Grgbhf6XS28AwPnA-11" value="" style="edgeStyle=orthogonalEdgeStyle;rounded=0;orthogonalLoop=1;jettySize=auto;html=1;fillColor=#FFFFFF;strokeColor=#FFFFFF;entryX=0;entryY=0;entryDx=0;entryDy=0;" edge="1" parent="UsbSKTNLDGFMmhRvK32d-12" source="FPM6FIKWUKKXR-FhMWvN-2" target="LPd5Grgbhf6XS28AwPnA-10">
          <mxGeometry relative="1" as="geometry">
            <mxPoint x="360" y="240" as="sourcePoint" />
            <mxPoint x="416.64466094067257" y="5.857864376268935" as="targetPoint" />
            <Array as="points">
              <mxPoint x="331" y="20" />
            </Array>
          </mxGeometry>
        </mxCell>
        <mxCell id="LPd5Grgbhf6XS28AwPnA-10" value="has a" style="shape=rhombus;perimeter=rhombusPerimeter;whiteSpace=wrap;html=1;align=center;" vertex="1" parent="UsbSKTNLDGFMmhRvK32d-12">
          <mxGeometry x="250" y="124.63999999999999" width="120" height="54" as="geometry" />
        </mxCell>
        <mxCell id="KZaF6q-184EJnIwjyUxu-5" value="has" style="shape=rhombus;perimeter=rhombusPerimeter;whiteSpace=wrap;html=1;align=center;" vertex="1" parent="UsbSKTNLDGFMmhRvK32d-12">
          <mxGeometry x="594" y="429" width="120" height="60" as="geometry" />
        </mxCell>
        <mxCell id="KZaF6q-184EJnIwjyUxu-7" value="" style="endArrow=ERone;html=1;rounded=0;entryX=0.5;entryY=1;entryDx=0;entryDy=0;exitX=0;exitY=0.5;exitDx=0;exitDy=0;startArrow=none;startFill=0;endFill=0;" edge="1" parent="UsbSKTNLDGFMmhRvK32d-12" source="KZaF6q-184EJnIwjyUxu-5" target="cOifzqY8TFvrQT7MqrBf-1">
          <mxGeometry width="50" height="50" relative="1" as="geometry">
            <mxPoint x="524" y="479" as="sourcePoint" />
            <mxPoint x="574" y="429" as="targetPoint" />
            <Array as="points">
              <mxPoint x="534.36" y="459" />
            </Array>
          </mxGeometry>
        </mxCell>
        <mxCell id="KZaF6q-184EJnIwjyUxu-8" value="SearchService" style="whiteSpace=wrap;html=1;" vertex="1" parent="UsbSKTNLDGFMmhRvK32d-12">
          <mxGeometry x="747.36" y="429" width="120" height="60" as="geometry" />
        </mxCell>
        <mxCell id="KZaF6q-184EJnIwjyUxu-10" value="" style="endArrow=ERone;html=1;rounded=0;exitX=1;exitY=0.5;exitDx=0;exitDy=0;entryX=0;entryY=0.5;entryDx=0;entryDy=0;endFill=0;" edge="1" parent="UsbSKTNLDGFMmhRvK32d-12" source="KZaF6q-184EJnIwjyUxu-5" target="KZaF6q-184EJnIwjyUxu-8">
          <mxGeometry width="50" height="50" relative="1" as="geometry">
            <mxPoint x="727.36" y="454.64" as="sourcePoint" />
            <mxPoint x="777.36" y="404.64" as="targetPoint" />
          </mxGeometry>
        </mxCell>
        <mxCell id="KZaF6q-184EJnIwjyUxu-15" value="GroceryStore" style="rounded=0;whiteSpace=wrap;html=1;" vertex="1" parent="UsbSKTNLDGFMmhRvK32d-12">
          <mxGeometry x="747.36" y="649.64" width="120" height="60" as="geometry" />
        </mxCell>
        <mxCell id="Hk7M73EH7nj9U-nQJ2d8-3" style="edgeStyle=orthogonalEdgeStyle;rounded=0;orthogonalLoop=1;jettySize=auto;html=1;entryX=0.5;entryY=0;entryDx=0;entryDy=0;endArrow=ERone;endFill=0;startArrow=ERone;startFill=0;" edge="1" parent="UsbSKTNLDGFMmhRvK32d-12" source="mcIqjRNlvS6JHtu8L6gV-39" target="ZYlIsSFp8S143ednloTV-49">
          <mxGeometry relative="1" as="geometry" />
        </mxCell>
        <mxCell id="mcIqjRNlvS6JHtu8L6gV-39" value="Account Information" style="whiteSpace=wrap;html=1;align=center;" vertex="1" parent="UsbSKTNLDGFMmhRvK32d-12">
          <mxGeometry x="440" y="24.999999999999986" width="170" height="35" as="geometry" />
        </mxCell>
        <mxCell id="FPM6FIKWUKKXR-FhMWvN-2" value="CouponHistory" style="whiteSpace=wrap;html=1;align=center;" vertex="1" parent="UsbSKTNLDGFMmhRvK32d-12">
          <mxGeometry x="260" y="60" width="100" height="29.36" as="geometry" />
        </mxCell>
        <mxCell id="KZaF6q-184EJnIwjyUxu-20" value="has" style="shape=rhombus;perimeter=rhombusPerimeter;whiteSpace=wrap;html=1;align=center;" vertex="1" parent="UsbSKTNLDGFMmhRvK32d-12">
          <mxGeometry x="747.36" y="540.64" width="120" height="50" as="geometry" />
        </mxCell>
        <mxCell id="KZaF6q-184EJnIwjyUxu-21" value="" style="endArrow=ERone;html=1;rounded=0;exitX=0.5;exitY=0;exitDx=0;exitDy=0;startArrow=none;startFill=0;endFill=0;" edge="1" parent="UsbSKTNLDGFMmhRvK32d-12" source="KZaF6q-184EJnIwjyUxu-20" target="KZaF6q-184EJnIwjyUxu-8">
          <mxGeometry width="50" height="50" relative="1" as="geometry">
            <mxPoint x="690" y="510" as="sourcePoint" />
            <mxPoint x="740" y="460" as="targetPoint" />
          </mxGeometry>
        </mxCell>
        <mxCell id="KZaF6q-184EJnIwjyUxu-22" value="" style="endArrow=ERmany;html=1;rounded=0;exitX=0.5;exitY=1;exitDx=0;exitDy=0;entryX=0.5;entryY=0;entryDx=0;entryDy=0;endFill=0;" edge="1" parent="UsbSKTNLDGFMmhRvK32d-12" source="KZaF6q-184EJnIwjyUxu-20" target="KZaF6q-184EJnIwjyUxu-15">
          <mxGeometry width="50" height="50" relative="1" as="geometry">
            <mxPoint x="690" y="510" as="sourcePoint" />
            <mxPoint x="740" y="460" as="targetPoint" />
          </mxGeometry>
        </mxCell>
        <mxCell id="Hk7M73EH7nj9U-nQJ2d8-5" value="Budget" style="whiteSpace=wrap;html=1;align=center;" vertex="1" parent="UsbSKTNLDGFMmhRvK32d-12">
          <mxGeometry x="604" y="529.64" width="100" height="40" as="geometry" />
        </mxCell>
        <mxCell id="Hk7M73EH7nj9U-nQJ2d8-10" style="edgeStyle=orthogonalEdgeStyle;rounded=0;orthogonalLoop=1;jettySize=auto;html=1;exitX=1;exitY=0.5;exitDx=0;exitDy=0;entryX=1;entryY=0.5;entryDx=0;entryDy=0;endArrow=ERone;endFill=0;startArrow=ERone;startFill=0;" edge="1" parent="UsbSKTNLDGFMmhRvK32d-12" source="mcIqjRNlvS6JHtu8L6gV-39" target="cOifzqY8TFvrQT7MqrBf-1">
          <mxGeometry relative="1" as="geometry" />
        </mxCell>
        <mxCell id="Hk7M73EH7nj9U-nQJ2d8-12" style="edgeStyle=orthogonalEdgeStyle;rounded=0;orthogonalLoop=1;jettySize=auto;html=1;exitX=0;exitY=1;exitDx=0;exitDy=0;entryX=0.105;entryY=0.02;entryDx=0;entryDy=0;entryPerimeter=0;startArrow=ERone;startFill=0;endArrow=ERone;endFill=0;" edge="1" parent="UsbSKTNLDGFMmhRvK32d-12" source="KZaF6q-184EJnIwjyUxu-1" target="i_mZ85ERt7kQ8alrdgQ5-20">
          <mxGeometry relative="1" as="geometry">
            <Array as="points">
              <mxPoint x="281" y="580" />
              <mxPoint x="281" y="720" />
            </Array>
          </mxGeometry>
        </mxCell>
      </root>
    </mxGraphModel>
  </diagram>
</mxfile>
